<svg width="24" height="24" viewBox="0 0 24 24" fill="none" xmlns="http://www.w3.org/2000/svg">
<path d="M11.3783 15.1737C11.6381 15.4399 11.8335 15.7641 11.9491 16.1207L12.3224 17.2912C12.3536 17.3814 12.4115 17.4595 12.4881 17.5148C12.5647 17.5701 12.6561 17.5997 12.7499 17.5997C12.8437 17.5997 12.9352 17.5701 13.0118 17.5148C13.0883 17.4595 13.1462 17.3814 13.1774 17.2912L13.5508 16.1207C13.6669 15.7649 13.8629 15.4417 14.123 15.1767C14.3831 14.9116 14.7002 14.7121 15.0491 14.594L16.1974 14.2132C16.2852 14.1808 16.3611 14.1216 16.4147 14.0437C16.4683 13.9657 16.4971 13.8728 16.4971 13.7776C16.4971 13.6823 16.4683 13.5894 16.4147 13.5115C16.3611 13.4335 16.2852 13.3743 16.1974 13.3419L16.1741 13.336L15.0257 12.9551C14.6769 12.8369 14.3599 12.6373 14.0998 12.3723C13.8398 12.1073 13.6438 11.7842 13.5274 11.4285L13.1549 10.258C13.1239 10.1675 13.066 10.089 12.9894 10.0335C12.9127 9.97803 12.821 9.94822 12.727 9.94822C12.633 9.94822 12.5413 9.97803 12.4647 10.0335C12.388 10.089 12.3301 10.1675 12.2991 10.258L11.9258 11.4285L11.9166 11.4574C11.8001 11.8043 11.6075 12.1196 11.3534 12.3791C11.0994 12.6387 10.7907 12.8357 10.4508 12.9551L9.30246 13.336C9.21467 13.3684 9.1388 13.4276 9.08518 13.5055C9.03155 13.5835 9.00278 13.6764 9.00278 13.7716C9.00278 13.8668 9.03155 13.9598 9.08518 14.0377C9.1388 14.1157 9.21467 14.1749 9.30246 14.2073L10.4508 14.5881C10.8008 14.7071 11.1174 14.9077 11.3783 15.1737ZM13.1666 7.3993V9.17843C12.9578 9.10104 12.733 9.0801 12.5139 9.11764C12.2949 9.15517 12.0891 9.24992 11.9166 9.39264V7.3993C11.9166 6.83569 11.6971 6.29517 11.3064 5.89663C10.9157 5.4981 10.3858 5.27421 9.83329 5.27421C9.28076 5.27421 8.75086 5.4981 8.36016 5.89663C7.96946 6.29517 7.74997 6.83569 7.74997 7.3993V12.4995C7.74997 12.9781 7.90497 13.4193 8.16663 13.7746C8.16714 14.0457 8.24992 14.3099 8.40361 14.5311C8.55731 14.7523 8.77436 14.9194 9.02496 15.0097L9.03579 15.0131L10.19 15.3956C10.41 15.4704 10.6108 15.5962 10.7766 15.7611C10.2794 15.9108 9.75484 15.9401 9.24459 15.8467C8.73434 15.7533 8.25248 15.5398 7.8373 15.2231C7.42212 14.9065 7.08506 14.4955 6.85291 14.0226C6.62076 13.5498 6.49991 13.0283 6.49998 12.4995V7.40015C6.49998 6.49838 6.85117 5.63353 7.47628 4.99588C8.1014 4.35823 8.94924 4 9.83329 4C10.7173 4 11.5652 4.35823 12.1903 4.99588C12.8154 5.63353 13.1666 6.49753 13.1666 7.3993ZM10.0416 17.1747C10.4835 17.1751 10.923 17.1072 11.3449 16.9733L11.5333 17.5641L11.5366 17.5743C11.6108 17.7885 11.7383 17.9789 11.9049 18.1268C11.4384 18.294 10.9523 18.3975 10.4591 18.4345L10.4583 20.3624C10.4582 20.5239 10.3981 20.6794 10.29 20.7974C10.1819 20.9155 10.0339 20.9872 9.87589 20.9982C9.7179 21.0092 9.56171 20.9587 9.43888 20.8567C9.31604 20.7548 9.23571 20.6091 9.21413 20.4491L9.20829 20.3624V18.4345C7.82623 18.3298 6.53071 17.7084 5.57016 16.6893C4.60962 15.6703 4.05168 14.3254 4.00333 12.9126L4 12.712V12.287C4.00005 12.1255 4.0602 11.97 4.16831 11.852C4.27642 11.734 4.42441 11.6622 4.5824 11.6512C4.74038 11.6402 4.89657 11.6907 5.01941 11.7927C5.14225 11.8946 5.22257 12.0403 5.24416 12.2003L5.24999 12.287V12.712C5.24989 13.8639 5.68642 14.9712 6.46826 15.8023C7.2501 16.6334 8.3167 17.1239 9.44496 17.1713L9.62496 17.1747H10.0416ZM18.1807 18.42L18.8191 18.6309L18.8316 18.6343C18.8683 18.6475 18.9016 18.6692 18.9287 18.6978C18.9559 18.7263 18.9762 18.7609 18.988 18.7987C18.9999 18.8366 19.003 18.8768 18.9971 18.9161C18.9912 18.9554 18.9765 18.9927 18.9541 19.0253C18.9237 19.0687 18.8809 19.1013 18.8316 19.1188L18.1941 19.3296C18.0001 19.3952 17.8238 19.5061 17.6791 19.6533C17.5345 19.8006 17.4255 19.9802 17.3607 20.1779L17.1541 20.8282C17.1368 20.8784 17.1047 20.9219 17.0621 20.9527C17.0196 20.9835 16.9687 21 16.9166 21C16.8644 21 16.8135 20.9835 16.771 20.9527C16.7284 20.9219 16.6963 20.8784 16.6791 20.8282L16.4716 20.1788C16.4075 19.9804 16.2989 19.8001 16.1544 19.6522C16.0098 19.5043 15.8333 19.3929 15.6391 19.327L15.0016 19.1154C14.9648 19.1021 14.9316 19.0804 14.9044 19.0519C14.8773 19.0233 14.857 18.9888 14.8451 18.9509C14.8333 18.913 14.8301 18.8729 14.836 18.8336C14.8419 18.7943 14.8567 18.7569 14.8791 18.7244C14.9094 18.681 14.9522 18.6483 15.0016 18.6309L15.6391 18.42C15.8306 18.3527 16.0043 18.2411 16.1465 18.0939C16.2888 17.9467 16.3957 17.768 16.4591 17.5717L16.6666 16.9214C16.6838 16.8712 16.7159 16.8277 16.7585 16.7969C16.801 16.7662 16.8519 16.7496 16.9041 16.7496C16.9562 16.7496 17.0071 16.7662 17.0496 16.7969C17.0922 16.8277 17.1243 16.8712 17.1416 16.9214L17.3491 17.5709C17.4133 17.7687 17.522 17.9484 17.6664 18.0959C17.8107 18.2433 17.9869 18.3543 18.1807 18.42Z" fill="#262626"/>
</svg>
