<svg width="173" height="36" viewBox="0 0 173 36" fill="none" xmlns="http://www.w3.org/2000/svg">
<mask id="mask0_121_1047" style="mask-type:luminance" maskUnits="userSpaceOnUse" x="0" y="5" width="16" height="25">
<path d="M0 5.33838H15.5175V29.8081H0V5.33838Z" fill="white"/>
</mask>
<g mask="url(#mask0_121_1047)">
<path d="M6.13535 6.56484L14.4263 15.0319C14.5935 15.2019 14.7427 15.3871 14.8741 15.5873C15.0055 15.7877 15.1159 16.0001 15.2055 16.2216C15.2966 16.4447 15.3653 16.6738 15.41 16.9105C15.4563 17.1472 15.4802 17.3855 15.4802 17.6267C15.4802 17.868 15.4563 18.1062 15.41 18.3429C15.3653 18.5797 15.2966 18.8088 15.2055 19.0318C15.1159 19.2534 15.0055 19.4658 14.8741 19.6661C14.7427 19.8665 14.5935 20.0515 14.4263 20.2215L6.13535 28.6887C3.87079 31.0012 -0.00149226 29.3624 4.31426e-07 26.0908V9.15808C-0.00149226 5.89111 3.87079 4.2523 6.13535 6.56484Z" fill="url(#paint0_linear_121_1047)"/>
</g>
<mask id="mask1_121_1047" style="mask-type:luminance" maskUnits="userSpaceOnUse" x="0" y="5" width="16" height="19">
<path d="M0 5.33838H15.5175V23.9813H0V5.33838Z" fill="white"/>
</mask>
<g mask="url(#mask1_121_1047)">
<path d="M6.13385 6.56452C3.88274 4.26564 0.0537399 5.87258 0 9.10311C0 9.10311 13.0469 21.7082 10.972 23.7628L14.4323 20.2288C14.5995 20.0588 14.7487 19.8737 14.8801 19.6735C15.0115 19.4731 15.1219 19.2607 15.2115 19.0391C15.3025 18.816 15.3697 18.5869 15.416 18.3502C15.4623 18.1135 15.4861 17.8753 15.4861 17.634C15.4861 17.3927 15.4623 17.1545 15.416 16.9178C15.3697 16.6811 15.3025 16.4519 15.2115 16.2289C15.1219 16.0059 15.0115 15.7949 14.8801 15.5946C14.7487 15.3943 14.5995 15.2092 14.4323 15.0377L6.13385 6.56452Z" fill="url(#paint1_linear_121_1047)"/>
</g>
<mask id="mask2_121_1047" style="mask-type:luminance" maskUnits="userSpaceOnUse" x="20" y="5" width="6" height="6">
<path d="M20.8672 5.33838H25.7948V10.3853H20.8672V5.33838Z" fill="white"/>
</mask>
<g mask="url(#mask2_121_1047)">
<path d="M25.7954 7.76474C25.7954 7.92255 25.7805 8.07885 25.7507 8.2321C25.7208 8.38688 25.676 8.53711 25.6163 8.68277C25.5581 8.82844 25.485 8.96653 25.3999 9.09706C25.3133 9.22904 25.2162 9.35043 25.1073 9.46123C24.9983 9.57195 24.8789 9.67209 24.752 9.7601C24.6236 9.84666 24.4878 9.92102 24.3444 9.98171C24.2027 10.0409 24.0564 10.0864 23.9041 10.1182C23.7533 10.1486 23.601 10.1638 23.4458 10.1638C23.2921 10.1638 23.1398 10.1486 22.9876 10.1182C22.8367 10.0864 22.6889 10.0409 22.5472 9.98171C22.4053 9.92102 22.2695 9.84666 22.1411 9.7601C22.0127 9.67209 21.8948 9.57195 21.7844 9.46123C21.6754 9.35043 21.5784 9.22904 21.4932 9.09706C21.4066 8.96653 21.335 8.82844 21.2753 8.68277C21.2171 8.53711 21.1723 8.38688 21.1424 8.2321C21.1126 8.07885 21.0977 7.92255 21.0977 7.76474C21.0977 7.60693 21.1126 7.45064 21.1424 7.29738C21.1723 7.1426 21.2171 6.99238 21.2753 6.84671C21.335 6.70104 21.4066 6.56295 21.4932 6.43245C21.5784 6.30044 21.6754 6.18057 21.7844 6.06828C21.8948 5.9575 22.0127 5.85736 22.1411 5.77087C22.2695 5.68286 22.4053 5.6085 22.5472 5.54933C22.6889 5.48863 22.8367 5.44311 22.9876 5.41276C23.1398 5.38089 23.2921 5.36572 23.4458 5.36572C23.601 5.36572 23.7533 5.38089 23.9041 5.41276C24.0564 5.44311 24.2027 5.48863 24.3444 5.54933C24.4878 5.6085 24.6236 5.68286 24.752 5.77087C24.8789 5.85736 24.9983 5.9575 25.1073 6.06828C25.2162 6.18057 25.3133 6.30044 25.3999 6.43245C25.485 6.56295 25.5581 6.70104 25.6163 6.84671C25.676 6.99238 25.7208 7.1426 25.7507 7.29738C25.7805 7.45064 25.7954 7.60693 25.7954 7.76474Z" fill="url(#paint2_linear_121_1047)"/>
<path d="M25.7954 7.76474C25.7954 7.92255 25.7805 8.07885 25.7507 8.2321C25.7208 8.38688 25.676 8.53711 25.6163 8.68277C25.5581 8.82844 25.485 8.96653 25.3999 9.09706C25.3133 9.22904 25.2162 9.35043 25.1073 9.46123C24.9983 9.57195 24.8789 9.67209 24.752 9.7601C24.6236 9.84666 24.4878 9.92102 24.3444 9.98171C24.2027 10.0409 24.0564 10.0864 23.9041 10.1182C23.7533 10.1486 23.601 10.1638 23.4458 10.1638C23.2921 10.1638 23.1398 10.1486 22.9876 10.1182C22.8367 10.0864 22.6889 10.0409 22.5472 9.98171C22.4053 9.92102 22.2695 9.84666 22.1411 9.7601C22.0127 9.67209 21.8948 9.57195 21.7844 9.46123C21.6754 9.35043 21.5784 9.22904 21.4932 9.09706C21.4066 8.96653 21.335 8.82844 21.2753 8.68277C21.2171 8.53711 21.1723 8.38688 21.1424 8.2321C21.1126 8.07885 21.0977 7.92255 21.0977 7.76474C21.0977 7.60693 21.1126 7.45064 21.1424 7.29738C21.1723 7.1426 21.2171 6.99238 21.2753 6.84671C21.335 6.70104 21.4066 6.56295 21.4932 6.43245C21.5784 6.30044 21.6754 6.18057 21.7844 6.06828C21.8948 5.9575 22.0127 5.85736 22.1411 5.77087C22.2695 5.68286 22.4053 5.6085 22.5472 5.54933C22.6889 5.48863 22.8367 5.44311 22.9876 5.41276C23.1398 5.38089 23.2921 5.36572 23.4458 5.36572C23.601 5.36572 23.7533 5.38089 23.9041 5.41276C24.0564 5.44311 24.2027 5.48863 24.3444 5.54933C24.4878 5.6085 24.6236 5.68286 24.752 5.77087C24.8789 5.85736 24.9983 5.9575 25.1073 6.06828C25.2162 6.18057 25.3133 6.30044 25.3999 6.43245C25.485 6.56295 25.5581 6.70104 25.6163 6.84671C25.676 6.99238 25.7208 7.1426 25.7507 7.29738C25.7805 7.45064 25.7954 7.60693 25.7954 7.76474Z" fill="url(#paint3_linear_121_1047)"/>
</g>
<mask id="mask3_121_1047" style="mask-type:luminance" maskUnits="userSpaceOnUse" x="9" y="5" width="17" height="25">
<path d="M9.78516 5.33838H25.7952V29.8081H9.78516V5.33838Z" fill="white"/>
</mask>
<g mask="url(#mask3_121_1047)">
<path d="M24.7431 15.0517L16.4522 6.58605C14.2264 4.31146 8.29258 6.94871 10.3228 9.02149L16.2865 15.1124C16.4522 15.2823 16.6014 15.4674 16.7328 15.6678C16.8642 15.868 16.9746 16.0805 17.0657 16.302C17.1553 16.5251 17.2239 16.7542 17.2702 16.9909C17.3165 17.2277 17.3388 17.4658 17.3388 17.7072C17.3388 17.9469 17.3165 18.1867 17.2702 18.4219C17.2239 18.6586 17.1553 18.8877 17.0657 19.1108C16.9746 19.3338 16.8642 19.5448 16.7328 19.745C16.6014 19.9453 16.4522 20.1304 16.2865 20.3004L10.3272 26.3883C8.51055 28.241 14.2473 30.9739 16.4522 28.7235L24.7431 20.2579C24.9103 20.0879 25.061 19.9013 25.1924 19.7011C25.3252 19.4992 25.4373 19.2883 25.5268 19.0637C25.6178 18.8407 25.6865 18.6115 25.7343 18.3733C25.7806 18.1366 25.8029 17.8968 25.8029 17.6555C25.8029 17.4127 25.7806 17.173 25.7343 16.9363C25.6865 16.6996 25.6178 16.4689 25.5268 16.2459C25.4373 16.0213 25.3252 15.8103 25.1924 15.6085C25.061 15.4083 24.9103 15.2231 24.7431 15.0517Z" fill="url(#paint4_linear_121_1047)"/>
</g>
<mask id="mask4_121_1047" style="mask-type:luminance" maskUnits="userSpaceOnUse" x="9" y="5" width="17" height="19">
<path d="M9.78516 5.33838H25.7952V23.9813H9.78516V5.33838Z" fill="white"/>
</mask>
<g mask="url(#mask4_121_1047)">
<path d="M24.7431 15.0517L16.4522 6.58605C14.2264 4.31146 8.29258 6.94871 10.3228 9.02149L16.2865 15.1124C16.573 15.4052 16.8059 15.7391 16.9821 16.1139C17.1582 16.4887 17.2687 16.8817 17.3135 17.2944C19.3691 19.7571 21.0768 22.1486 21.4321 23.6387L24.749 20.2518C24.9162 20.0819 25.0655 19.8953 25.1969 19.6949C25.3283 19.4946 25.4387 19.2823 25.5298 19.0592C25.6208 18.8361 25.688 18.6055 25.7343 18.3688C25.7806 18.132 25.8029 17.8922 25.8029 17.651C25.8029 17.4098 25.7791 17.17 25.7328 16.9332C25.6865 16.6965 25.6178 16.4659 25.5268 16.2428C25.4358 16.0197 25.3238 15.8089 25.1924 15.6085C25.061 15.4083 24.9103 15.2217 24.7431 15.0517Z" fill="url(#paint5_linear_121_1047)"/>
</g>
<path d="M42.1748 28.9985C40.7416 28.9985 39.4158 28.7345 38.1975 28.2063C36.9971 27.6782 35.9401 26.9406 35.0264 25.9937C34.1306 25.0467 33.4319 23.9357 32.9302 22.661C32.4286 21.3862 32.1777 19.993 32.1777 18.4815C32.1777 16.9699 32.4196 15.5767 32.9033 14.3019C33.405 13.0089 34.1037 11.898 34.9995 10.9693C35.9132 10.0223 36.9792 9.29378 38.1975 8.78389C39.4158 8.25576 40.7416 7.9917 42.1748 7.9917C43.6081 7.9917 44.889 8.23755 46.0177 8.72926C47.1644 9.22097 48.1319 9.87658 48.9201 10.6961C49.7084 11.4974 50.2728 12.3806 50.6132 13.3458L47.3346 14.9029C46.9583 13.8831 46.3223 13.0454 45.4265 12.3897C44.5308 11.716 43.4468 11.379 42.1748 11.379C40.9207 11.379 39.8099 11.6795 38.8424 12.2805C37.8929 12.8815 37.1494 13.7101 36.6119 14.7663C36.0924 15.8226 35.8326 17.061 35.8326 18.4815C35.8326 19.9019 36.0924 21.1494 36.6119 22.2239C37.1494 23.2801 37.8929 24.1088 38.8424 24.7097C39.8099 25.3107 40.9207 25.6112 42.1748 25.6112C43.4468 25.6112 44.5308 25.2834 45.4265 24.6278C46.3223 23.954 46.9583 23.1072 47.3346 22.0873L50.6132 23.6444C50.2728 24.6096 49.7084 25.5019 48.9201 26.3215C48.1319 27.1228 47.1644 27.7693 46.0177 28.261C44.889 28.7527 43.6081 28.9985 42.1748 28.9985ZM60.1708 28.9985C58.7375 28.9985 57.4297 28.6616 56.2472 27.9878C55.0827 27.314 54.1511 26.3943 53.4524 25.2288C52.7715 24.0633 52.4312 22.7338 52.4312 21.2405C52.4312 19.7472 52.7715 18.4177 53.4524 17.2522C54.1511 16.0867 55.0827 15.167 56.2472 14.4932C57.4117 13.8194 58.7196 13.4824 60.1708 13.4824C61.604 13.4824 62.903 13.8194 64.0675 14.4932C65.232 15.167 66.1547 16.0867 66.8355 17.2522C67.5342 18.3995 67.8836 19.7289 67.8836 21.2405C67.8836 22.7338 67.5342 24.0633 66.8355 25.2288C66.1368 26.3943 65.2051 27.314 64.0406 27.9878C62.8761 28.6616 61.5861 28.9985 60.1708 28.9985ZM60.1708 25.7205C60.9591 25.7205 61.6489 25.5293 62.2401 25.1468C62.8492 24.7644 63.324 24.2362 63.6644 23.5624C64.0227 22.8704 64.2019 22.0964 64.2019 21.2405C64.2019 20.3663 64.0227 19.6015 63.6644 18.9458C63.324 18.2721 62.8492 17.7439 62.2401 17.3615C61.6489 16.9608 60.9591 16.7605 60.1708 16.7605C59.3646 16.7605 58.6569 16.9608 58.0478 17.3615C57.4386 17.7439 56.9549 18.2721 56.5966 18.9458C56.2561 19.6015 56.086 20.3663 56.086 21.2405C56.086 22.0964 56.2561 22.8704 56.5966 23.5624C56.9549 24.2362 57.4386 24.7644 58.0478 25.1468C58.6569 25.5293 59.3646 25.7205 60.1708 25.7205ZM70.5533 28.6707V13.8102H73.8588V16.7332L73.5901 16.2141C73.9304 15.3218 74.4858 14.6479 75.2562 14.1927C76.0445 13.7192 76.9582 13.4824 77.9974 13.4824C79.0723 13.4824 80.0218 13.7192 80.846 14.1927C81.688 14.6662 82.3419 15.3309 82.8078 16.1868C83.2735 17.0245 83.5065 17.9989 83.5065 19.1097V28.6707H79.986V19.9566C79.986 19.301 79.8606 18.7364 79.6098 18.2629C79.359 17.7894 79.0096 17.4252 78.5617 17.1702C78.1317 16.8971 77.6211 16.7605 77.0299 16.7605C76.4566 16.7605 75.946 16.8971 75.4981 17.1702C75.0502 17.4252 74.7008 17.7894 74.45 18.2629C74.1992 18.7364 74.0738 19.301 74.0738 19.9566V28.6707H70.5533ZM93.524 28.9985C92.0729 28.9985 90.7653 28.6616 89.6005 27.9878C88.4541 27.2957 87.5497 26.367 86.8862 25.2015C86.2236 24.0177 85.8919 22.6883 85.8919 21.2132C85.8919 19.738 86.2236 18.4177 86.8862 17.2522C87.5497 16.0867 88.4541 15.167 89.6005 14.4932C90.7653 13.8194 92.0729 13.4824 93.524 13.4824C94.5637 13.4824 95.5312 13.6737 96.4264 14.0561C97.3225 14.4203 98.0926 14.9302 98.7375 15.5858C99.401 16.2233 99.8755 16.9882 100.162 17.8805L97.0714 19.2463C96.8026 18.4996 96.3458 17.8987 95.7008 17.4434C95.0743 16.9881 94.3487 16.7605 93.524 16.7605C92.7539 16.7605 92.0645 16.9517 91.4548 17.3341C90.8635 17.7166 90.3983 18.2447 90.0573 18.9185C89.7172 19.5923 89.5467 20.3663 89.5467 21.2405C89.5467 22.1146 89.7172 22.8886 90.0573 23.5624C90.3983 24.2362 90.8635 24.7644 91.4548 25.1468C92.0645 25.5293 92.7539 25.7205 93.524 25.7205C94.3664 25.7205 95.1012 25.4928 95.7277 25.0375C96.355 24.5823 96.8026 23.9722 97.0714 23.2073L100.162 24.6278C99.8755 25.4655 99.4094 26.2213 98.7644 26.8951C98.1195 27.5507 97.3493 28.0697 96.4533 28.4522C95.558 28.8164 94.5814 28.9985 93.524 28.9985ZM109.767 28.9985C108.262 28.9985 106.945 28.6525 105.816 27.9605C104.688 27.2684 103.81 26.3306 103.183 25.1468C102.555 23.9631 102.242 22.6518 102.242 21.2132C102.242 19.7199 102.555 18.3995 103.183 17.2522C103.828 16.0867 104.697 15.167 105.789 14.4932C106.9 13.8194 108.137 13.4824 109.498 13.4824C110.644 13.4824 111.648 13.6737 112.508 14.0561C113.385 14.4385 114.13 14.9667 114.738 15.6405C115.347 16.3143 115.813 17.0883 116.136 17.9624C116.458 18.8184 116.62 19.7472 116.62 20.7488C116.62 21.0038 116.602 21.2678 116.566 21.541C116.548 21.8141 116.503 22.0509 116.431 22.2512H105.144V19.5195H114.443L112.777 20.8034C112.938 19.9657 112.893 19.219 112.642 18.5634C112.41 17.9078 112.015 17.3888 111.46 17.0063C110.922 16.6239 110.268 16.4327 109.498 16.4327C108.763 16.4327 108.11 16.6239 107.536 17.0063C106.963 17.3706 106.524 17.9169 106.219 18.6454C105.933 19.3556 105.826 20.2206 105.897 21.2405C105.826 22.1511 105.941 22.9615 106.246 23.6717C106.569 24.3638 107.035 24.901 107.644 25.2834C108.271 25.6658 108.987 25.8571 109.794 25.8571C110.6 25.8571 111.281 25.684 111.836 25.338C112.41 24.9921 112.857 24.5277 113.18 23.9449L116.028 25.3654C115.742 26.0756 115.293 26.7039 114.685 27.2502C114.076 27.7966 113.35 28.2245 112.508 28.5341C111.684 28.8438 110.77 28.9985 109.767 28.9985ZM119.288 28.6707V13.8102H122.594V17.1156L122.325 16.6239C122.665 15.513 123.194 14.739 123.911 14.3019C124.645 13.8649 125.523 13.6463 126.544 13.6463H127.404V16.8151H126.141C125.138 16.8151 124.331 17.1338 123.723 17.7712C123.113 18.3904 122.809 19.2645 122.809 20.3937V28.6707H119.288ZM136.398 28.8346C134.75 28.8346 133.469 28.3794 132.555 27.4688C131.66 26.54 131.211 25.2379 131.211 23.5624V17.0063H128.685V13.8102H128.954C129.671 13.8102 130.226 13.619 130.62 13.2366C131.015 12.8541 131.211 12.2987 131.211 11.5702V10.4229H134.732V13.8102H138.091V17.0063H134.732V23.3712C134.732 23.8629 134.812 24.2818 134.974 24.6278C135.153 24.9738 135.422 25.2379 135.78 25.42C136.156 25.6021 136.631 25.6932 137.204 25.6932C137.33 25.6932 137.473 25.684 137.634 25.6658C137.814 25.6477 137.983 25.6294 138.145 25.6112V28.6707C137.894 28.7072 137.607 28.7435 137.285 28.78C136.962 28.8164 136.667 28.8346 136.398 28.8346ZM140.835 28.6707V13.8102H144.355V28.6707H140.835ZM140.835 12.1439V8.3195H144.355V12.1439H140.835ZM149.299 28.6707V17.0063H146.719V13.8102H149.299V13.3185C149.299 12.1894 149.522 11.2333 149.971 10.4502C150.436 9.64891 151.081 9.03888 151.906 8.61999C152.73 8.20113 153.706 7.9917 154.835 7.9917C155.05 7.9917 155.283 8.00991 155.534 8.04633C155.802 8.06454 156.026 8.09186 156.205 8.12828V11.2151C156.026 11.1787 155.856 11.1605 155.695 11.1605C155.551 11.1423 155.417 11.1332 155.292 11.1332C154.503 11.1332 153.894 11.3152 153.464 11.6795C153.034 12.0255 152.819 12.5718 152.819 13.3185V13.8102H156.071V17.0063H152.819V28.6707H149.299ZM160.297 34.7078C159.902 34.7078 159.518 34.6713 159.141 34.5985C158.765 34.5439 158.424 34.4438 158.12 34.298V31.2932C158.353 31.3478 158.631 31.4024 158.953 31.4571C159.293 31.5117 159.607 31.539 159.894 31.539C160.7 31.539 161.282 31.3478 161.641 30.9654C162.017 30.5829 162.348 30.0821 162.635 29.4629L163.602 27.1683L163.549 30.1732L157.18 13.8102H160.969L165.43 25.8844H164.086L168.52 13.8102H172.336L165.967 30.1732C165.591 31.1384 165.134 31.9579 164.597 32.6317C164.059 33.3055 163.432 33.8155 162.716 34.1615C162.017 34.5257 161.211 34.7078 160.297 34.7078Z" fill="url(#paint6_linear_121_1047)"/>
<defs>
<linearGradient id="paint0_linear_121_1047" x1="0" y1="17.6266" x2="15.4802" y2="17.6266" gradientUnits="userSpaceOnUse">
<stop stop-color="#8E0BF5"/>
<stop offset="0.81577" stop-color="#5311BF"/>
<stop offset="1" stop-color="#412088"/>
</linearGradient>
<linearGradient id="paint1_linear_121_1047" x1="0" y1="14.6226" x2="15.4861" y2="14.6226" gradientUnits="userSpaceOnUse">
<stop stop-color="#8E0BF5"/>
<stop offset="0.81577" stop-color="#5311BF"/>
<stop offset="1" stop-color="#412088"/>
</linearGradient>
<linearGradient id="paint2_linear_121_1047" x1="21.0977" y1="7.76474" x2="25.7954" y2="7.76474" gradientUnits="userSpaceOnUse">
<stop stop-color="#8E0BF5"/>
<stop offset="0.81577" stop-color="#5311BF"/>
<stop offset="1" stop-color="#412088"/>
</linearGradient>
<linearGradient id="paint3_linear_121_1047" x1="21.0977" y1="7.76474" x2="25.7954" y2="7.76474" gradientUnits="userSpaceOnUse">
<stop stop-color="#8E0BF5"/>
<stop offset="0.81577" stop-color="#5311BF"/>
<stop offset="1" stop-color="#412088"/>
</linearGradient>
<linearGradient id="paint4_linear_121_1047" x1="9.90623" y1="17.6409" x2="25.8029" y2="17.6409" gradientUnits="userSpaceOnUse">
<stop stop-color="#8E0BF5"/>
<stop offset="0.81577" stop-color="#5311BF"/>
<stop offset="1" stop-color="#412088"/>
</linearGradient>
<linearGradient id="paint5_linear_121_1047" x1="9.90623" y1="14.6743" x2="25.8029" y2="14.6743" gradientUnits="userSpaceOnUse">
<stop stop-color="#8E0BF5"/>
<stop offset="0.81577" stop-color="#5311BF"/>
<stop offset="1" stop-color="#412088"/>
</linearGradient>
<linearGradient id="paint6_linear_121_1047" x1="30.834" y1="17.5732" x2="172.761" y2="17.5732" gradientUnits="userSpaceOnUse">
<stop stop-color="#8E0BF5"/>
<stop offset="0.81577" stop-color="#5311BF"/>
<stop offset="1" stop-color="#412088"/>
</linearGradient>
</defs>
</svg>
