<svg width="60" height="56" viewBox="0 0 60 56" fill="none" xmlns="http://www.w3.org/2000/svg">
<mask id="mask0_122_6643" style="mask-type:luminance" maskUnits="userSpaceOnUse" x="0" y="0" width="37" height="56">
<path d="M0 0H36.0935V55.9927H0V0Z" fill="white"/>
</mask>
<g mask="url(#mask0_122_6643)">
<path d="M14.2707 2.80544L33.5553 22.1803C33.9442 22.5692 34.2914 22.9928 34.597 23.4511C34.9025 23.9095 35.1595 24.3956 35.3678 24.9025C35.5796 25.4129 35.7393 25.9372 35.8435 26.4789C35.9511 27.0205 36.0067 27.5657 36.0067 28.1178C36.0067 28.6698 35.9511 29.215 35.8435 29.7566C35.7393 30.2983 35.5796 30.8226 35.3678 31.333C35.1595 31.84 34.9025 32.3261 34.597 32.7844C34.2914 33.2427 33.9442 33.6663 33.5553 34.0552L14.2707 53.4301C9.00341 58.7217 -0.00347097 54.9717 1.00349e-06 47.4857V8.73942C-0.00347097 1.26378 9.00341 -2.48619 14.2707 2.80544Z" fill="url(#paint0_linear_122_6643)"/>
</g>
<mask id="mask1_122_6643" style="mask-type:luminance" maskUnits="userSpaceOnUse" x="0" y="0" width="37" height="43">
<path d="M0 0H36.0935V42.6594H0V0Z" fill="white"/>
</mask>
<g mask="url(#mask1_122_6643)">
<path d="M14.2692 2.80592C9.03314 -2.45446 0.126951 1.2226 0.00195312 8.61491C0.00195312 8.61491 30.349 37.4585 25.5226 42.1598L33.5712 34.0731C33.96 33.6842 34.3073 33.2606 34.6128 32.8022C34.9184 32.3439 35.1753 31.8578 35.3836 31.3509C35.5954 30.8404 35.7517 30.3161 35.8593 29.7745C35.967 29.2328 36.0225 28.6877 36.0225 28.1356C36.0225 27.5835 35.967 27.0384 35.8593 26.4967C35.7517 25.9551 35.5954 25.4308 35.3836 24.9203C35.1753 24.4099 34.9184 23.9273 34.6128 23.469C34.3073 23.0106 33.96 22.587 33.5712 22.1947L14.2692 2.80592Z" fill="url(#paint1_linear_122_6643)"/>
</g>
<mask id="mask2_122_6643" style="mask-type:luminance" maskUnits="userSpaceOnUse" x="48" y="0" width="12" height="12">
<path d="M48.5361 0H59.9979V11.5485H48.5361V0Z" fill="white"/>
</mask>
<g mask="url(#mask2_122_6643)">
<path d="M59.9993 5.55204C59.9993 5.91315 59.9645 6.27079 59.8951 6.62148C59.8257 6.97565 59.7215 7.31939 59.5826 7.65272C59.4472 7.98605 59.2771 8.30202 59.0791 8.60063C58.8778 8.90271 58.6521 9.18049 58.3986 9.43396C58.1451 9.68743 57.8673 9.9166 57.5722 10.118C57.2736 10.3159 56.9576 10.486 56.6243 10.6249C56.2944 10.7603 55.9542 10.8645 55.6 10.9374C55.2493 11.0069 54.8951 11.0416 54.534 11.0416C54.1764 11.0416 53.8222 11.0069 53.4681 10.9374C53.1174 10.8645 52.7736 10.7603 52.4438 10.6249C52.1139 10.486 51.7979 10.3159 51.4993 10.118C51.2007 9.9166 50.9264 9.68743 50.6695 9.43396C50.416 9.18049 50.1903 8.90271 49.9924 8.60063C49.791 8.30202 49.6243 7.98605 49.4855 7.65272C49.35 7.31939 49.2459 6.97565 49.1764 6.62148C49.107 6.27079 49.0723 5.91315 49.0723 5.55204C49.0723 5.19094 49.107 4.8333 49.1764 4.48261C49.2459 4.12844 49.35 3.7847 49.4855 3.45136C49.6243 3.11803 49.791 2.80206 49.9924 2.50345C50.1903 2.20137 50.416 1.92707 50.6695 1.67013C50.9264 1.41666 51.2007 1.18749 51.4993 0.989577C51.7979 0.788189 52.1139 0.618052 52.4438 0.482636C52.7736 0.343748 53.1174 0.239582 53.4681 0.170138C53.8222 0.0972222 54.1764 0.0625 54.534 0.0625C54.8951 0.0625 55.2493 0.0972222 55.6 0.170138C55.9542 0.239582 56.2944 0.343748 56.6243 0.482636C56.9576 0.618052 57.2736 0.788189 57.5722 0.989577C57.8673 1.18749 58.1451 1.41666 58.3986 1.67013C58.6521 1.92707 58.8778 2.20137 59.0791 2.50345C59.2771 2.80206 59.4472 3.11803 59.5826 3.45136C59.7215 3.7847 59.8257 4.12844 59.8951 4.48261C59.9645 4.8333 59.9993 5.19094 59.9993 5.55204Z" fill="url(#paint2_linear_122_6643)"/>
<path d="M59.9993 5.55204C59.9993 5.91315 59.9645 6.27079 59.8951 6.62148C59.8257 6.97565 59.7215 7.31939 59.5826 7.65272C59.4472 7.98605 59.2771 8.30202 59.0791 8.60063C58.8778 8.90271 58.6521 9.18049 58.3986 9.43396C58.1451 9.68743 57.8673 9.9166 57.5722 10.118C57.2736 10.3159 56.9576 10.486 56.6243 10.6249C56.2944 10.7603 55.9542 10.8645 55.6 10.9374C55.2493 11.0069 54.8951 11.0416 54.534 11.0416C54.1764 11.0416 53.8222 11.0069 53.4681 10.9374C53.1174 10.8645 52.7736 10.7603 52.4438 10.6249C52.1139 10.486 51.7979 10.3159 51.4993 10.118C51.2007 9.9166 50.9264 9.68743 50.6695 9.43396C50.416 9.18049 50.1903 8.90271 49.9924 8.60063C49.791 8.30202 49.6243 7.98605 49.4855 7.65272C49.35 7.31939 49.2459 6.97565 49.1764 6.62148C49.107 6.27079 49.0723 5.91315 49.0723 5.55204C49.0723 5.19094 49.107 4.8333 49.1764 4.48261C49.2459 4.12844 49.35 3.7847 49.4855 3.45136C49.6243 3.11803 49.791 2.80206 49.9924 2.50345C50.1903 2.20137 50.416 1.92707 50.6695 1.67013C50.9264 1.41666 51.2007 1.18749 51.4993 0.989577C51.7979 0.788189 52.1139 0.618052 52.4438 0.482636C52.7736 0.343748 53.1174 0.239582 53.4681 0.170138C53.8222 0.0972222 54.1764 0.0625 54.534 0.0625C54.8951 0.0625 55.2493 0.0972222 55.6 0.170138C55.9542 0.239582 56.2944 0.343748 56.6243 0.482636C56.9576 0.618052 57.2736 0.788189 57.5722 0.989577C57.8673 1.18749 58.1451 1.41666 58.3986 1.67013C58.6521 1.92707 58.8778 2.20137 59.0791 2.50345C59.2771 2.80206 59.4472 3.11803 59.5826 3.45136C59.7215 3.7847 59.8257 4.12844 59.8951 4.48261C59.9645 4.8333 59.9993 5.19094 59.9993 5.55204Z" fill="url(#paint3_linear_122_6643)"/>
</g>
<mask id="mask3_122_6643" style="mask-type:luminance" maskUnits="userSpaceOnUse" x="22" y="0" width="38" height="56">
<path d="M22.7607 0H60.0001V55.9927H22.7607V0Z" fill="white"/>
</mask>
<g mask="url(#mask3_122_6643)">
<path d="M57.5493 22.2257L38.2647 2.85432C33.0877 -2.35051 19.2857 3.68417 24.0079 8.4272L37.8793 22.3646C38.2647 22.7535 38.612 23.1771 38.9175 23.6354C39.2231 24.0938 39.48 24.5799 39.6918 25.0868C39.9001 25.5972 40.0599 26.1215 40.1675 26.6632C40.2751 27.2048 40.3272 27.75 40.3272 28.3021C40.3272 28.8507 40.2751 29.3993 40.1675 29.9375C40.0599 30.4791 39.9001 31.0034 39.6918 31.5138C39.48 32.0243 39.2231 32.5069 38.9175 32.9652C38.612 33.4235 38.2647 33.8472 37.8793 34.236L24.0183 48.1665C19.7926 52.4061 33.1363 58.6595 38.2647 53.5102L57.5493 34.1388C57.9382 33.7499 58.2889 33.3229 58.5945 32.8645C58.9035 32.4027 59.1639 31.9201 59.3722 31.4062C59.584 30.8958 59.7437 30.3715 59.8549 29.8264C59.9625 29.2847 60.0146 28.7361 60.0146 28.184C60.0146 27.6285 59.9625 27.0798 59.8549 26.5382C59.7437 25.9965 59.584 25.4687 59.3722 24.9583C59.1639 24.4444 58.9035 23.9618 58.5945 23.5C58.2889 23.0417 57.9382 22.6181 57.5493 22.2257Z" fill="url(#paint4_linear_122_6643)"/>
</g>
<mask id="mask4_122_6643" style="mask-type:luminance" maskUnits="userSpaceOnUse" x="22" y="0" width="38" height="43">
<path d="M22.7607 0H60.0001V42.6594H22.7607V0Z" fill="white"/>
</mask>
<g mask="url(#mask4_122_6643)">
<path d="M57.5493 22.2257L38.2647 2.85432C33.0877 -2.35051 19.2857 3.68417 24.0079 8.4272L37.8793 22.3646C38.546 23.0347 39.0876 23.7986 39.4974 24.6562C39.9071 25.5139 40.164 26.4132 40.2682 27.3576C45.0494 32.993 49.0216 38.4652 49.848 41.8749L57.5632 34.1249C57.9521 33.736 58.2993 33.309 58.6049 32.8506C58.9104 32.3923 59.1674 31.9062 59.3792 31.3958C59.591 30.8854 59.7472 30.3576 59.8549 29.8159C59.9625 29.2743 60.0146 28.7257 60.0146 28.1736C60.0146 27.6215 59.959 27.0729 59.8514 26.5312C59.7437 25.9896 59.584 25.4618 59.3722 24.9514C59.1604 24.441 58.9 23.9583 58.5945 23.5C58.2889 23.0417 57.9382 22.6146 57.5493 22.2257Z" fill="url(#paint5_linear_122_6643)"/>
</g>
<defs>
<linearGradient id="paint0_linear_122_6643" x1="0" y1="28.1176" x2="36.0067" y2="28.1176" gradientUnits="userSpaceOnUse">
<stop stop-color="#8E0BF5"/>
<stop offset="0.81577" stop-color="#5311BF"/>
<stop offset="1" stop-color="#412088"/>
</linearGradient>
<linearGradient id="paint1_linear_122_6643" x1="0.00195312" y1="21.2448" x2="36.0225" y2="21.2448" gradientUnits="userSpaceOnUse">
<stop stop-color="#8E0BF5"/>
<stop offset="0.81577" stop-color="#5311BF"/>
<stop offset="1" stop-color="#412088"/>
</linearGradient>
<linearGradient id="paint2_linear_122_6643" x1="49.0723" y1="5.55204" x2="59.9993" y2="5.55204" gradientUnits="userSpaceOnUse">
<stop stop-color="#8E0BF5"/>
<stop offset="0.81577" stop-color="#5311BF"/>
<stop offset="1" stop-color="#412088"/>
</linearGradient>
<linearGradient id="paint3_linear_122_6643" x1="49.0723" y1="5.55204" x2="59.9993" y2="5.55204" gradientUnits="userSpaceOnUse">
<stop stop-color="#8E0BF5"/>
<stop offset="0.81577" stop-color="#5311BF"/>
<stop offset="1" stop-color="#412088"/>
</linearGradient>
<linearGradient id="paint4_linear_122_6643" x1="23.0391" y1="28.1506" x2="60.0146" y2="28.1506" gradientUnits="userSpaceOnUse">
<stop stop-color="#8E0BF5"/>
<stop offset="0.81577" stop-color="#5311BF"/>
<stop offset="1" stop-color="#412088"/>
</linearGradient>
<linearGradient id="paint5_linear_122_6643" x1="23.0391" y1="21.3622" x2="60.0146" y2="21.3622" gradientUnits="userSpaceOnUse">
<stop stop-color="#8E0BF5"/>
<stop offset="0.81577" stop-color="#5311BF"/>
<stop offset="1" stop-color="#412088"/>
</linearGradient>
</defs>
</svg>
