<svg width="24" height="20" viewBox="0 0 24 20" fill="none" xmlns="http://www.w3.org/2000/svg">
<path d="M20.8401 2.49591C20.3294 1.98492 19.7229 1.57956 19.0555 1.303C18.388 1.02643 17.6726 0.884087 16.9501 0.884087C16.2276 0.884087 15.5122 1.02643 14.8448 1.303C14.1773 1.57956 13.5709 1.98492 13.0601 2.49591L12.0001 3.55591L10.9401 2.49591C9.90843 1.46422 8.50915 0.884621 7.05012 0.884621C5.59109 0.884621 4.19181 1.46422 3.16012 2.49591C2.12843 3.5276 1.54883 4.92688 1.54883 6.38591C1.54883 7.84495 2.12843 9.24422 3.16012 10.2759L4.22012 11.3359L12.0001 19.1159L19.7801 11.3359L20.8401 10.2759C21.3511 9.76516 21.7565 9.15873 22.033 8.49127C22.3096 7.82381 22.4519 7.1084 22.4519 6.38591C22.4519 5.66343 22.3096 4.94802 22.033 4.28056C21.7565 3.6131 21.3511 3.00667 20.8401 2.49591V2.49591Z" stroke="#5311BF" stroke-width="1.5" stroke-linecap="round" stroke-linejoin="round"/>
</svg>
