<svg width="24" height="24" viewBox="0 0 24 24" fill="none" xmlns="http://www.w3.org/2000/svg">
<path d="M3 17.6892C3.86297 18.1599 10.1091 21.7105 14.5511 18.9739C18.9925 16.2373 18.7474 11.5225 18.7474 9.36159C19.15 8.53042 20 8.10778 20 5.85779C19.1652 6.61838 18.3353 6.8769 17.5104 6.63426C16.7024 5.41927 15.5907 4.88148 14.1748 5.02177C12.0516 5.23221 11.275 7.28631 11.5036 9.94438C8.22974 11.5767 5.66274 8.76071 4.33942 6.63426C3.89742 8.30895 3.47153 10.3198 4.33942 12.5438C4.91832 14.027 6.31008 15.2804 8.51382 16.3052C6.28011 17.4986 4.44232 17.9605 3 17.6892Z" stroke="#262626" stroke-width="1.5" stroke-linejoin="round"/>
</svg>
